<?xml version="1.0" standalone="no"?>
<!DOCTYPE svg PUBLIC "-//W3C//DTD SVG 20010904//EN"
 "http://www.w3.org/TR/2001/REC-SVG-20010904/DTD/svg10.dtd">
<svg version="1.0" xmlns="http://www.w3.org/2000/svg"
 width="547.000000pt" height="547.000000pt" viewBox="0 0 547.000000 547.000000"
 preserveAspectRatio="xMidYMid meet">
<metadata>
Created by potrace 1.14, written by Peter Selinger 2001-2017
</metadata>
<g transform="translate(0.000000,547.000000) scale(0.100000,-0.100000)"
fill="#000000" stroke="none">
<path d="M1570 5110 c-162 -186 -242 -399 -243 -650 0 -69 3 -150 7 -180 14
-92 14 -91 -24 -105 -404 -149 -594 -264 -825 -500 -240 -243 -400 -557 -460
-897 -17 -93 -29 -258 -20 -258 3 0 16 10 29 23 66 64 148 130 210 167 37 22
39 22 32 4 -39 -99 -64 -292 -61 -458 2 -101 6 -144 21 -261 3 -22 14 -82 25
-134 12 -51 22 -103 25 -114 10 -54 49 -159 86 -232 23 -44 46 -90 52 -102 6
-13 14 -23 19 -23 4 0 7 -6 7 -13 0 -20 93 -133 184 -223 78 -77 171 -149 249
-193 20 -12 52 -30 71 -40 36 -21 218 -91 235 -91 6 0 0 30 -13 68 -24 65 -52
158 -61 201 -3 11 -7 30 -9 40 -5 21 -14 85 -21 143 -2 21 -1 38 3 38 4 0 36
-43 70 -95 69 -104 230 -275 332 -353 290 -222 670 -378 1070 -441 217 -34
343 -45 520 -45 104 0 319 12 330 19 3 1 25 6 50 9 65 9 163 30 255 56 81 22
255 91 255 100 0 3 -31 24 -68 47 -264 162 -443 467 -477 807 l-7 69 34 -21
c152 -91 373 -201 529 -262 57 -22 108 -40 114 -40 7 0 30 13 51 28 144 105
367 178 604 198 41 3 86 11 100 18 51 23 134 200 165 351 19 93 14 130 -25
203 l-28 52 72 34 c70 33 162 98 199 141 24 28 94 128 95 138 1 4 8 21 17 37
25 48 54 189 59 280 2 52 12 107 25 143 12 31 24 83 27 115 3 31 7 62 9 69 4
12 -56 63 -73 63 -6 0 -12 4 -14 8 -1 4 -39 30 -83 57 -44 27 -84 53 -90 58
-5 4 -82 53 -170 108 -88 55 -160 103 -160 107 0 4 12 30 27 58 26 49 26 52
10 70 -9 11 -30 37 -46 59 -93 127 -387 381 -582 502 -64 40 -226 134 -262
152 -34 17 -42 26 -36 39 13 31 13 200 -1 245 -28 93 -82 179 -157 250 -54 51
-73 59 -63 26 11 -33 6 -141 -6 -153 -2 -3 -15 16 -29 42 -98 190 -310 340
-583 412 -48 13 -89 21 -91 19 -2 -2 0 -27 3 -56 11 -80 3 -258 -14 -305 -2
-7 -6 -24 -9 -38 -13 -75 -87 -248 -109 -255 -12 -4 -54 -10 -143 -21 l-51 -6
-18 49 c-10 26 -29 65 -42 85 -12 21 -23 40 -23 44 0 10 -86 117 -129 160 -59
61 -156 131 -233 170 -38 19 -68 32 -68 29 0 -3 6 -18 14 -33 15 -28 49 -135
60 -184 6 -26 5 -27 -24 -16 -142 49 -461 265 -592 400 -20 21 -43 38 -50 38
-8 0 -34 -22 -58 -50z m1925 -1752 c33 -23 62 -44 65 -47 7 -8 56 -36 128 -73
34 -18 62 -35 62 -39 0 -9 -55 -19 -109 -19 -59 0 -141 38 -170 78 -34 48 -63
142 -44 142 4 0 34 -19 68 -42z m-219 -659 c11 -9 64 -53 119 -100 55 -46 115
-98 134 -116 25 -24 40 -31 57 -27 13 3 50 7 84 7 l60 2 63 -67 c34 -37 73
-71 87 -76 19 -7 48 -2 114 19 118 38 143 38 160 -2 7 -17 11 -55 10 -85 -2
-40 1 -54 9 -51 7 2 39 10 71 18 l59 13 28 -34 c16 -18 26 -37 23 -42 -8 -12
11 -10 42 7 32 16 57 19 68 8 4 -5 11 -8 14 -9 18 -1 102 -61 102 -72 0 -36
-74 -122 -104 -122 -6 0 -11 19 -12 43 -1 83 -4 84 -105 16 -52 -35 -105 -63
-122 -64 -36 -3 -107 14 -107 26 0 5 -11 33 -24 63 l-25 56 -50 -34 c-64 -43
-140 -69 -210 -70 l-54 -1 -3 80 c-5 139 -12 148 -96 121 -29 -10 -87 -20
-128 -23 l-75 -5 -53 53 -52 52 -78 -34 c-89 -39 -127 -41 -171 -9 -26 18 -31
27 -27 47 7 26 91 153 110 165 18 12 47 -1 109 -48 61 -47 69 -51 62 -31 -2 6
-6 26 -8 42 -7 47 -44 119 -81 154 -38 37 -46 35 -117 -20 -20 -16 -41 -29
-45 -29 -12 0 -61 79 -69 111 -7 27 6 36 105 76 36 14 105 10 126 -8z m-268
-261 c-1 -74 -17 -105 -61 -113 -32 -6 -100 15 -112 35 -3 6 3 23 15 39 23 33
138 114 150 106 4 -3 8 -33 8 -67z"/>
</g>
</svg>
